<svg id="Layer_3" enable-background="new 0 0 64 64" height="512" viewBox="0 0 64 64" width="512" xmlns="http://www.w3.org/2000/svg"><path d="m11 47v6h-1c-.552 0-1 .447-1 1v4c0 .553.448 1 1 1h3v1c0 1.654 1.346 3 3 3h4c1.654 0 3-1.346 3-3v-1h18v1c0 1.654 1.346 3 3 3h4c1.654 0 3-1.346 3-3v-1h3c.552 0 1-.447 1-1v-4c0-.553-.448-1-1-1h-1v-6c0-2.607-1.673-4.824-4-5.65v-1.35h1c1.654 0 3-1.346 3-3v-2c0-1.654-1.346-3-3-3h-1v-1c0-3.309-2.691-6-6-6h-22c-3.309 0-6 2.691-6 6v1h-1c-1.654 0-3 1.346-3 3v2c0 1.654 1.346 3 3 3h1v1.35c-2.327.826-4 3.043-4 5.65zm0 8h14v2h-14zm26 0v2h-10v-2zm2-6h-14v-2h14zm-14 2h14v2h-14zm-4 9c0 .552-.449 1-1 1h-4c-.551 0-1-.448-1-1v-1h6zm28 0c0 .552-.449 1-1 1h-4c-.551 0-1-.448-1-1v-1h6zm4-3h-14v-2h14zm-2-10v6h-10v-7c0-.553-.448-1-1-1h-16c-.552 0-1 .447-1 1v7h-10v-6c0-2.206 1.794-4 4-4h30c2.206 0 4 1.794 4 4zm-1-13c.551 0 1 .448 1 1v2c0 .552-.449 1-1 1h-1v-4zm-36 4c-.551 0-1-.448-1-1v-2c0-.552.449-1 1-1h1v4zm3-7c0-2.206 1.794-4 4-4h22c2.206 0 4 1.794 4 4v10h-30z"/><path d="m42 29h-20c-1.654 0-3 1.346-3 3v6c0 .553.448 1 1 1h24c.552 0 1-.447 1-1v-6c0-1.654-1.346-3-3-3zm1 8h-22v-5c0-.552.449-1 1-1h20c.551 0 1 .448 1 1z"/><path d="m43 48c0 1.654 1.346 3 3 3s3-1.346 3-3-1.346-3-3-3-3 1.346-3 3zm4 0c0 .552-.449 1-1 1s-1-.448-1-1 .449-1 1-1 1 .448 1 1z"/><path d="m18 45c-1.654 0-3 1.346-3 3s1.346 3 3 3 3-1.346 3-3-1.346-3-3-3zm0 4c-.551 0-1-.448-1-1s.449-1 1-1 1 .448 1 1-.449 1-1 1z"/><path d="m62.706 9.292-7.999-7.999c-.187-.188-.442-.293-.707-.293h-44c-.265 0-.52.105-.707.293l-7.999 7.999c-.182.181-.294.431-.294.708v52c0 .553.448 1 1 1h4c.552 0 1-.447 1-1v-39h50v39c0 .553.448 1 1 1h4c.552 0 1-.447 1-1v-52c0-.277-.112-.527-.294-.708zm-52.292-6.292h43.172l6 6h-55.172zm46.586 14h-50v-2h50zm-50 4v-2h50v2zm54 40h-2v-47c0-.553-.448-1-1-1h-52c-.552 0-1 .447-1 1v47h-2v-50h58z"/></svg>